<svg version="1.1" id="Layer_1" xmlns="http://www.w3.org/2000/svg" x="0" y="0" viewBox="0 0 3000 455" xml:space="preserve"><style>.st0{fill:#2d4463}.st1{fill:#263b4f}</style><path id="XMLID_51_" class="st0" d="M1538.7 296.8l274.6-95.5s298.9 97.9 294.1 95.5c-4.8-2.3-568.7 0-568.7 0z"/><path id="XMLID_50_" class="st1" d="M1813.3 201.3l-170.5 95.1-104.1.4z"/><path id="XMLID_48_" class="st0" d="M309.2 275.2l274.6-95.5s298.9 97.9 294.1 95.5c-4.8-2.3-568.7 0-568.7 0z"/><path id="XMLID_47_" class="st1" d="M583.7 179.7l-170.4 95.1-104.1.4z"/><path id="XMLID_31_" class="st0" d="M555.7 328.2l274.6-119.8s298.9 122.8 294.1 119.8-568.7 0-568.7 0z"/><path id="XMLID_29_" class="st1" d="M830.2 208.4L659.8 327.7l-104.1.5z"/><path id="XMLID_32_" class="st0" d="M1044.1 309l235.2-130.4L1721.8 309z"/><path id="XMLID_34_" class="st0" d="M1836 307.4l130.8-99 283.6 99z"/><path id="XMLID_36_" class="st0" d="M2081.9 319.7l137.9-117.8 219.1 117.8z"/><path id="XMLID_33_" class="st0" d="M1398.9 315.2l193.7-114.6 304.7 114.6z"/><path id="XMLID_28_" class="st0" d="M923.5 175.9l318.3 129.9H809.1z"/><path id="XMLID_38_" class="st0" d="M2219.9 336.9l93.2-102.9 290.4 102.9z"/><path id="XMLID_39_" class="st0" d="M0 336.3h880.7L309.2 102.7 0 238.7z"/><path id="XMLID_30_" class="st0" d="M418.4 336.9L693 144.6s298.9 197 294.1 192.3c-4.8-4.8-568.7 0-568.7 0z"/><path id="XMLID_41_" class="st1" d="M923.5 175.9l-76.9 129.9h-37.5z"/><path id="XMLID_42_" class="st1" d="M1279.3 178.6L1139.7 309h-95.6z"/><path id="XMLID_44_" class="st1" d="M1966.8 208.4l-86.7 99H1836z"/><path id="XMLID_45_" class="st1" d="M2219.8 201.9l-91.5 117.8h-46.4z"/><path id="XMLID_46_" class="st1" d="M2313.1 234l-55.4 102.9h-37.8z"/><path id="XMLID_43_" class="st1" d="M1592.6 200.6l-131 114.6h-62.7z"/><path id="XMLID_37_" class="st1" d="M0 238.7v52.7l309.2-188.7z"/><path id="XMLID_7_" class="st0" d="M1156.7 336.3l274.6-76.1s298.9 78 294.1 76.1c-4.8-1.9-568.7 0-568.7 0z"/><path id="XMLID_6_" class="st1" d="M1431.3 260.2L1260.8 336l-104.1.3z"/><path id="XMLID_10_" class="st0" d="M1572.7 336.3l274.6-87.2s298.9 89.4 294.1 87.2c-4.8-2.2-568.7 0-568.7 0z"/><path id="XMLID_9_" class="st1" d="M1847.3 249.1L1676.8 336l-104.1.3z"/><path id="XMLID_13_" class="st0" d="M1870.2 334.3l274.6-53.8s298.9 55.1 294.1 53.8c-4.8-1.4-568.7 0-568.7 0z"/><path id="XMLID_12_" class="st1" d="M2144.7 280.5l-170.4 53.6-104.1.2z"/><path id="XMLID_40_" class="st1" d="M693 144.6L522.5 336.1l-104.1.8z"/><path id="XMLID_3_" class="st0" d="M844.7 336.3l274.6-95.5s298.9 97.9 294.1 95.5c-4.8-2.4-568.7 0-568.7 0z"/><path id="XMLID_2_" class="st1" d="M1119.3 240.8l-170.5 95.1-104.1.4z"/></svg>