<?xml version="1.0" encoding="utf-8"?>
<!-- Generator: Adobe Illustrator 19.0.0, SVG Export Plug-In . SVG Version: 6.00 Build 0)  -->
<svg version="1.1" id="Layer_1" xmlns="http://www.w3.org/2000/svg" xmlns:xlink="http://www.w3.org/1999/xlink" x="0px" y="0px"
	 viewBox="-478 257.9 46 46" style="enable-background:new -478 257.9 46 46;" xml:space="preserve">
<style type="text/css">
	.st0{fill:#FFFFFF;}
</style>
<title>figma</title>
<desc>Created with Sketch.</desc>
<g>
	<g transform="translate(-168.000000, -176.000000)">
		<g transform="translate(168.000000, 176.000000)">
			<path class="st0" d="M-461,271.9c-3.8,0-7-3.1-7-7c0-3.8,3.1-7,7-7h13.9c3.8,0,7,3.1,7,7c0,3.8-3.1,7-7,7H-461z"/>
			<path class="st0" d="M-461.2,287.9h7.1v-14h-7.1c-1.9,0-3.7,0.8-4.9,2.1c-1.3,1.3-2.1,3-2.1,4.9
				C-468.2,284.7-465,287.9-461.2,287.9"/>
			<path class="st0" d="M-446.4,274c-3.9,0-7,3.1-7,7c0,3.9,3.1,7,7,7s7-3.1,7-7C-439.4,277.2-442.5,274-446.4,274"/>
			<path class="st0" d="M-454.1,289.9h-7.2v0c-3.7,0.1-6.7,3.2-6.7,7c0,3.9,3.1,7,7,7c3.7,0,6.8-2.9,7-6.6h0v-0.1c0-0.1,0-0.2,0-0.3
				c0-0.1,0-0.2,0-0.3V289.9z"/>
		</g>
	</g>
</g>
</svg>
