<?xml version="1.0" encoding="utf-8"?>
<!-- Generator: Adobe Illustrator 19.0.0, SVG Export Plug-In . SVG Version: 6.00 Build 0)  -->
<svg version="1.1" id="Layer_1" xmlns="http://www.w3.org/2000/svg" xmlns:xlink="http://www.w3.org/1999/xlink" x="0px" y="0px"
	 viewBox="-49 141 512 512" style="enable-background:new -49 141 512 512;" xml:space="preserve">
<style type="text/css">
	.st0{fill:#FFFFFF;}
</style>
<g>
	<path class="st0" d="M-42.8,634.5H58.4c3.4,0,6.2-2.8,6.2-6.2v-446c0-3.4-2.8-6.2-6.2-6.2H-42.8c-3.4,0-6.2,2.8-6.2,6.2v446
		C-49,631.7-46.2,634.5-42.8,634.5z"/>
	<path class="st0" d="M260.2,641.7c40.4,0,75.9-16.5,97.9-44.9l3.1,32c0.3,3.2,3,5.6,6.2,5.6h89.3c0,0,0,0,0,0
		c3.4,0,6.2-2.8,6.2-6.2c0-0.4,0-0.8-0.1-1.2c-1.3-21.8-2.6-59.4-2.6-95.4V158.5c0-3.4-2.8-6.2-6.2-6.2H353.5
		c-3.4,0-6.2,2.8-6.2,6.2v159.7c-18-17.3-46.4-27-80.5-27c-38.5,0-74.6,15-101.7,42.2c-32.7,32.9-49.8,80-49.5,136.1
		C115.7,569.3,176.5,641.7,260.2,641.7z M292.6,549.3c-38.6,0-62.6-31.8-62.6-83.1c0-39.6,16.6-85.8,63.3-85.8
		c29.6,0,47.8,22.3,52.8,44.5c0.6,4.9,1.2,11.8,1.2,16.8V484c0,8.9-0.7,15.3-2.4,21.5c0,0.1-0.1,0.2-0.1,0.4
		C339.4,531.8,318.4,549.3,292.6,549.3z"/>
</g>
</svg>
