<?xml version="1.0" encoding="utf-8"?>
<!-- Generator: Adobe Illustrator 19.0.0, SVG Export Plug-In . SVG Version: 6.00 Build 0)  -->
<svg version="1.1" id="Layer_1" xmlns="http://www.w3.org/2000/svg" xmlns:xlink="http://www.w3.org/1999/xlink" x="0px" y="0px"
	 viewBox="-411.3 220.8 121.4 121.4" style="enable-background:new -411.3 220.8 121.4 121.4;" xml:space="preserve">
<style type="text/css">
	.st0{fill:#F4F4F4;}
	.st1{fill:#FCFCFC;}
	.st2{fill:#F9F9F9;}
	.st3{fill:#F0F0F0;}
	.st4{fill:#FFFFFF;}
</style>
<path class="st0" d="M-327,259.8c1.6,4.6,2.8,9.4,3.1,14.3c0.5,6.1,0.3,12.1-1,18.1c0,0.2-0.1,0.3-0.2,0.5c-0.4,0-0.8,0-1.2,0
	c-3.3,0.5-6.7,1.1-10,1.6c-3.4,0.6-6.9,1.1-10.3,1.7c-1.2,0.2-2.7,0-3.2,1.6c0,0-0.2,0.1-0.2,0.1l0.2-10.1
	c-0.1-8.1-0.1-16.2-0.2-24.3l1.6-0.3c2.6-0.4,5.2-0.9,7.9-1.3c3.1-0.5,6.3-1,9.4-1.5C-329.7,260.2-328.3,260-327,259.8z"/>
<path class="st1" d="M-353.3,327.1c-1.7-1.5-3.4-2.8-5.1-4.4c-8.7-8.2-15.1-17.9-18.2-29.6c-0.9-3.2-1.4-6.5-1.6-9.8
	c-0.1-2.3-0.3-4.7-0.2-7c0.4-6.1,1.3-12.2,3.1-18.1l0.1-0.1c0.2,0.2,0.4,0.4,0.5,0.7c1.8,5.2,3.5,10.4,5.2,15.6
	c5.5,16.3,10.9,32.6,16.4,48.9c0.1,0.3,0.4,0.6,0.6,0.9C-352.4,324.1-353.3,327.1-353.3,327.1z"/>
<path class="st2" d="M-327,259.8c-1.4,0.2-2.8,0.4-4.1,0.6c-3.1,0.5-6.3,1-9.4,1.5c-2.6,0.4-5.2,0.9-7.9,1.3l-1.6,0.3l0-1
	c-0.1-0.9-0.1-1.7-0.2-2.6c-0.1-5.5-0.1-11-0.2-16.4c0-3.4-0.1-6.9-0.2-10.3c0-2.1-0.1-4.3-0.2-6.4c-0.1-1.1-0.2-2.3-0.3-3.4
	c0-0.7,0-1.3,0-2c0.8,1.6,1.6,3.2,2.5,4.7c1.3,2.5,3.4,4.3,5.3,6.3C-335.6,240.3-330.3,249.4-327,259.8z"/>
<path class="st3" d="M-350,297.8c0.1,0,0.2,0,0.2-0.1c0.5-1.7,2-1.4,3.2-1.6c3.4-0.6,6.9-1.1,10.3-1.7c3.3-0.5,6.7-1.1,10-1.6
	c0.4-0.1,0.8,0,1.2,0c-0.6,2.2-1.1,4.5-1.9,6.6c-0.9,2.4-2,4.8-3.1,7.2c-1.7,3.5-3.9,6.8-6.4,9.8c-1.9,2.3-4.1,4.4-6.2,6.5
	c-1.2,1.2-2.6,2.1-3.9,3.2l-0.3-0.2l-1.2-1l-1.3-2.8c-0.9-3.2-1.3-6.5-1.4-9.8l0-0.6l0.2-2.4c0.1-0.8,0.1-1.7,0.2-2.5
	C-350.2,303.7-350.1,300.7-350,297.8L-350,297.8z"/>
<path class="st4" d="M-350,297.8c-0.1,3-0.2,6-0.4,8.9c0,0.8-0.1,1.7-0.2,2.5l-0.8,0.3c-1.7-5-3.4-10-5.1-14.9
	c-2.8-8.2-5.5-16.4-8.2-24.6c-2.2-6.6-4.5-13.2-6.7-19.9c-0.1-0.3-0.4-0.6-0.6-0.8l4.9-9c0.2,0.3,0.4,0.6,0.5,0.9
	c2.3,6.7,4.5,13.4,6.8,20.1c2.9,8.7,5.8,17.5,8.7,26.2c0.1,0.3,0.3,0.7,0.5,1.1l0.7-0.8C-349.9,291.1-349.9,294.4-350,297.8z"/>
<path class="st4" d="M-371.8,249.2c0.2,0.3,0.5,0.5,0.6,0.8c2.2,6.6,4.5,13.2,6.7,19.9c2.7,8.2,5.5,16.4,8.2,24.6
	c1.7,5,3.4,9.9,5.1,14.9l0.8-0.3l-0.2,2.4l-0.2,0.6c-0.3,2.7-0.5,5.3-0.8,8c-0.2,1.3-0.5,2.6-0.8,3.9c-0.2-0.3-0.5-0.5-0.6-0.9
	c-5.5-16.3-10.9-32.6-16.4-48.9c-1.7-5.2-3.5-10.4-5.2-15.6c-0.1-0.3-0.3-0.5-0.5-0.7C-374,255.1-372.9,252.2-371.8,249.2z"/>
<path class="st4" d="M-349.8,287.7l-0.7,0.8c-0.2-0.4-0.4-0.7-0.5-1.1c-2.9-8.7-5.8-17.5-8.7-26.2c-2.2-6.7-4.5-13.4-6.8-20.1
	c-0.1-0.3-0.3-0.6-0.5-0.9l6.1-8c0.2,0.3,0.5,0.5,0.6,0.8c1.7,4.9,3.3,9.8,5,14.8c1.5,4.6,3.1,9.2,4.6,13.8c0.1,0.3,0.5,0.5,0.7,0.8
	l0,1C-349.9,271.5-349.9,279.6-349.8,287.7z"/>
<path class="st4" d="M-350,262.4c-0.2-0.3-0.6-0.5-0.7-0.8c-1.6-4.6-3.1-9.2-4.6-13.8c-1.7-4.9-3.3-9.9-5-14.8
	c-0.1-0.3-0.4-0.5-0.6-0.8c2-1.9,3.9-3.9,5.9-5.8c1.8-1.6,3.3-3.4,3.4-6c0-0.1,0.1-0.2,0.1-0.5l0.5,1.3c0,0.7-0.1,1.3,0,2
	c0.1,1.1,0.3,2.3,0.3,3.4c0.1,2.1,0.1,4.3,0.2,6.4c0.1,3.4,0.1,6.9,0.2,10.3c0.1,5.5,0.1,11,0.2,16.4
	C-350.1,260.7-350,261.5-350,262.4z"/>
<path class="st4" d="M-352.4,324.1c0.3-1.3,0.6-2.6,0.8-3.9c0.3-2.6,0.5-5.3,0.8-8l0.1,0l0.1,0c0.1,3.3,0.5,6.6,1.4,9.8
	c-0.2,0.2-0.4,0.4-0.5,0.7c-0.7,2.1-1.4,4.1-2.1,6.2c-0.1,0.3-0.4,0.5-0.6,0.7l-0.7-2.6C-353.3,327.1-352.4,324.1-352.4,324.1z"/>
<path class="st4" d="M-352.5,329.6c0.2-0.2,0.5-0.5,0.6-0.7c0.7-2.1,1.4-4.1,2.1-6.2c0.1-0.3,0.3-0.5,0.5-0.7l1.3,2.8
	c-0.2,0.4-0.6,0.7-0.7,1.1l-2.4,7.1c-0.1,0.3-0.4,0.5-0.7,0.7C-351.8,333.6-352.5,329.6-352.5,329.6z"/>
<path class="st4" d="M-351.8,333.6c0.2-0.2,0.6-0.4,0.7-0.7l2.4-7.1c0.1-0.4,0.5-0.7,0.7-1.1l1.2,1c-0.6,0.6-0.9,1.3-0.7,2.1
	l-0.4,1.2c-0.2,0.2-0.4,0.4-0.5,0.6c-0.8,2.4-1.6,4.8-2.5,7.2c-0.1,0.3-0.4,0.5-0.6,0.8C-351.6,336.4-351.7,335-351.8,333.6
	L-351.8,333.6z"/>
<path class="st4" d="M-351.5,337.8c0.2-0.3,0.5-0.5,0.6-0.8c0.8-2.4,1.6-4.8,2.5-7.2c0.1-0.2,0.3-0.4,0.5-0.6l-0.5,5.5
	c-0.1,0.2-0.3,0.3-0.4,0.5c-0.6,1.6-1.1,3.2-1.7,4.9c-0.1,0.3-0.3,0.6-0.5,0.9c-0.2-0.2-0.4-0.4-0.5-0.6
	C-351.5,339.5-351.5,338.6-351.5,337.8z"/>
<path class="st4" d="M-351,340.9c0.2-0.3,0.4-0.6,0.5-0.9c0.6-1.6,1.1-3.2,1.7-4.9c0.1-0.2,0.3-0.3,0.4-0.5l0,3.6l-1.2,3.1
	C-349.6,341.4-351,340.9-351,340.9z"/>
<path class="st4" d="M-349.6,341.4l1.2-3.1l0.3,3.7L-349.6,341.4z"/>
<path class="st4" d="M-347.5,327.9c-0.2-0.8,0.1-1.5,0.7-2.1l0.3,0.2L-347.5,327.9z"/>
<path class="st4" d="M-350.7,312.2L-350.7,312.2l-0.1,0l0.2-0.6C-350.7,311.6-350.7,312.2-350.7,312.2z"/>
</svg>
