<?xml version="1.0" encoding="utf-8"?>
<!-- Generator: Adobe Illustrator 19.0.0, SVG Export Plug-In . SVG Version: 6.00 Build 0)  -->
<svg version="1.1" id="Layer_1" xmlns="http://www.w3.org/2000/svg" xmlns:xlink="http://www.w3.org/1999/xlink" x="0px" y="0px"
	 viewBox="294 -204 1200 1200" style="enable-background:new 294 -204 1200 1200;" xml:space="preserve">
<style type="text/css">
	.st0{fill:#FFFFFF;}
	.st1{fill:#F5F5F5;}
	.st2{fill:#959595;}
</style>
<path class="st0" d="M894-204l530.3,300v600L894,996L363.7,696V96L894-204z"/>
<path class="st1" d="M1329.6,675.3L911.5,911.8V727.6L1172,584.3L1329.6,675.3z M1358.2,649.4V154.8l-153,88.3V561L1358.2,649.4
	L1358.2,649.4z M456.7,675.3l418.1,236.5V727.6L614.3,584.3L456.7,675.3L456.7,675.3z M428.1,649.4V154.8l153,88.3V561L428.1,649.4
	L428.1,649.4z M446,122.8l428.8-242.6V58.3L600.1,209.4l-2.1,1.2L446,122.8z M1340.3,122.8L911.5-119.8V58.3l274.7,151.1l2.1,1.2
	L1340.3,122.8z"/>
<path class="st2" d="M874.8,685.7l-257-141.3v-280l257,148.4V685.7L874.8,685.7z M911.5,685.7l257-141.3v-280l-257,148.4V685.7
	L911.5,685.7z M635.2,232l258-141.9l258,141.9l-258,149L635.2,232z"/>
</svg>
